<?xml version="1.0" encoding="UTF-8" standalone="no"?>
<!-- Created with Inkscape (http://www.inkscape.org/) -->
<svg
   xmlns:dc="http://purl.org/dc/elements/1.1/"
   xmlns:cc="http://creativecommons.org/ns#"
   xmlns:rdf="http://www.w3.org/1999/02/22-rdf-syntax-ns#"
   xmlns:svg="http://www.w3.org/2000/svg"
   xmlns="http://www.w3.org/2000/svg"
   xmlns:sodipodi="http://sodipodi.sourceforge.net/DTD/sodipodi-0.dtd"
   xmlns:inkscape="http://www.inkscape.org/namespaces/inkscape"
   width="744.09448819"
   height="1052.3622047"
   id="svg2"
   sodipodi:version="0.32"
   inkscape:version="0.46"
   sodipodi:docname="rucksack-avatar.svg"
   inkscape:output_extension="org.inkscape.output.svg.inkscape">
  <defs
     id="defs4">
    <inkscape:perspective
       sodipodi:type="inkscape:persp3d"
       inkscape:vp_x="0 : 526.18109 : 1"
       inkscape:vp_y="0 : 1000 : 0"
       inkscape:vp_z="744.09448 : 526.18109 : 1"
       inkscape:persp3d-origin="372.04724 : 350.78739 : 1"
       id="perspective10" />
    <inkscape:perspective
       id="perspective2504"
       inkscape:persp3d-origin="372.04724 : 350.78739 : 1"
       inkscape:vp_z="744.09448 : 526.18109 : 1"
       inkscape:vp_y="0 : 1000 : 0"
       inkscape:vp_x="0 : 526.18109 : 1"
       sodipodi:type="inkscape:persp3d" />
  </defs>
  <sodipodi:namedview
     id="base"
     pagecolor="#ffffff"
     bordercolor="#666666"
     borderopacity="1.0"
     gridtolerance="10000"
     guidetolerance="10"
     objecttolerance="10"
     inkscape:pageopacity="0.0"
     inkscape:pageshadow="2"
     inkscape:zoom="0.49497475"
     inkscape:cx="396.0985"
     inkscape:cy="418.8994"
     inkscape:document-units="px"
     inkscape:current-layer="layer1"
     showgrid="false"
     inkscape:window-width="1026"
     inkscape:window-height="798"
     inkscape:window-x="0"
     inkscape:window-y="22" />
  <metadata
     id="metadata7">
    <rdf:RDF>
      <cc:Work
         rdf:about="">
        <dc:format>image/svg+xml</dc:format>
        <dc:type
           rdf:resource="http://purl.org/dc/dcmitype/StillImage" />
      </cc:Work>
    </rdf:RDF>
  </metadata>
  <g
     inkscape:label="Layer 1"
     inkscape:groupmode="layer"
     id="layer1">
    <path
       style="fill:#ffffff;fill-rule:evenodd;stroke:#000000;stroke-width:1px;stroke-linecap:butt;stroke-linejoin:miter;stroke-opacity:1"
       d="M 365.12216,403.46484 L 428.57729,359.27164 L 447.71419,418.9827 L 396.6446,427.43783"
       id="path2546"
       sodipodi:nodetypes="cccc" />
    <path
       style="fill:#008000;fill-rule:evenodd;stroke:#000000;stroke-width:1px;stroke-linecap:butt;stroke-linejoin:miter;stroke-opacity:1"
       d="M 250.54115,409.06785 C 250.54115,409.06785 113.35572,556.67998 145.01826,588.98172 C 176.6808,621.28346 222.31631,639.38327 227.90927,636.83886 C 243.07363,629.9401 216.89598,623.05727 216.89598,623.05727 C 216.89598,623.05727 178.50902,611.4568 171.62448,582.8984 C 163.57014,549.48743 229.87815,433.42864 243.7298,426.57975 C 257.58144,419.73085 250.08831,411.28076 250.54115,409.06785 z"
       id="path2552"
       sodipodi:nodetypes="csscssc" />
    <path
       style="fill:#00bd00;fill-rule:evenodd;stroke:#000000;stroke-width:1px;stroke-linecap:butt;stroke-linejoin:miter;stroke-opacity:1;fill-opacity:1"
       d="M 299.87581,690.76057 C 391.78605,662.99593 406.96576,625.91277 417.29191,589.42818 C 428.3038,550.52074 405.9996,467.98482 401.50149,451.19769 C 394.70388,425.82865 346.66202,311.15304 296.53566,346.54589 C 246.40928,381.93873 234.96001,448.46638 228.55717,471.43093 C 221.62447,496.29585 169.8646,576.63958 218.41339,640.42906 C 232.09311,658.40319 268.98388,704.26697 299.87581,690.76057 z"
       id="path2516"
       sodipodi:nodetypes="csssssc" />
    <path
       style="fill:#ffffff;fill-rule:evenodd;stroke:#000000;stroke-width:1px;stroke-linecap:butt;stroke-linejoin:miter;stroke-opacity:1"
       d="M 317.74534,398.38104 L 342.04479,313.43601 L 408.52098,346.86733 L 358.3621,409.45934"
       id="path2550"
       sodipodi:nodetypes="cccc" />
    <path
       style="fill:#ffffff;fill-rule:evenodd;stroke:#000000;stroke-width:1px;stroke-linecap:butt;stroke-linejoin:miter;stroke-opacity:1"
       d="M 330.71009,411.63974 L 320.10708,305.71897 L 213.9624,346.7098 L 261.81588,423.82517"
       id="path2548"
       sodipodi:nodetypes="cccc" />
    <path
       style="opacity:1;fill:#000000;fill-opacity:1;stroke:none;stroke-opacity:1"
       id="path2538"
       d="M 271.13975,688.99226 C 269.00337,692.17621 269.66094,698.17053 269.71211,701.80434 C 270.0931,709.67382 271.20163,717.47406 271.55622,725.34429 C 271.7258,730.40124 271.14894,735.43412 270.6166,740.45207 C 270.50412,743.45014 270.50406,746.46576 270.81534,749.45372 C 270.73029,750.50291 271.55636,751.72775 271.22402,752.77465 C 270.781,754.17017 269.1106,755.45499 268.12993,756.42167 C 263.90728,760.097 261.37671,765.08114 258.79742,769.94183 C 256.82709,774.14453 254.91538,778.37894 253.06614,782.63677 C 251.719,785.68788 250.39768,788.74793 249.10377,791.82194 C 248.19395,793.65612 247.30664,795.52679 246.04771,797.14714 C 244.50419,798.40242 243.58422,800.00664 242.58965,801.67706 C 241.7589,803.24388 241.73812,805.0467 241.1372,806.69681 C 240.97609,807.45088 240.58642,808.1118 240.31066,808.82579 L 229.40524,798.76079 C 229.68953,798.08835 229.99693,797.42268 230.18713,796.71513 C 230.70989,794.96915 230.93074,793.11259 231.91929,791.53881 C 232.91656,789.80521 233.91218,788.18504 235.47277,786.88103 C 236.57853,785.29321 237.48346,783.57186 238.43353,781.88827 C 239.89581,778.91874 241.19101,775.87933 242.55269,772.86178 C 244.49394,768.66496 246.69655,764.59032 248.69314,760.41924 C 251.34538,755.45099 254.01963,750.43311 257.92092,746.30497 C 260.28255,743.41307 260.08596,743.6768 259.63392,740.04942 C 259.48902,737.02819 259.50385,733.97783 259.80594,730.96885 C 260.57806,726.17529 261.18187,721.34372 261.09706,716.47644 C 260.88664,708.64962 259.95256,700.87896 259.42043,693.07111 C 259.18682,688.31317 258.21128,682.89069 260.48885,678.47767 L 271.13975,688.99226 z" />
    <path
       style="fill:#318c00;fill-rule:evenodd;stroke:#000000;stroke-width:1px;stroke-linecap:butt;stroke-linejoin:miter;stroke-opacity:1;fill-opacity:1"
       d="M 389.71191,452.30274 C 446.4921,593.95657 404.81606,645.68127 322.24517,669.25933 C 287.20236,679.26578 243.74748,653.54764 234.84195,611.97394 C 226.07454,571.04505 243.4178,475.87477 257.95049,456.2345 C 291.73208,410.58021 379.91703,423.55366 389.71191,452.30274 z"
       id="path2518"
       sodipodi:nodetypes="csssc" />
    <path
       style="fill:#ffffff;fill-rule:evenodd;stroke:#000000;stroke-width:1px;stroke-linecap:butt;stroke-linejoin:miter;stroke-opacity:1"
       d="M 339.70184,421.77985 C 339.70184,421.77985 355.79388,329.6219 411.65834,358.57612 C 467.5228,387.53033 400.74395,481.76611 372.35888,469.50191 C 343.97382,457.23772 339.70184,421.77985 339.70184,421.77985 z"
       id="path2510"
       sodipodi:nodetypes="cssc" />
    <path
       style="fill:#ffffff;fill-rule:evenodd;stroke:#000000;stroke-width:1px;stroke-linecap:butt;stroke-linejoin:miter;stroke-opacity:1"
       d="M 248.49752,454.35188 L 192.93912,394.75287 L 243.44675,370.50922 L 257.5889,410.91532"
       id="path3324"
       sodipodi:nodetypes="cccc" />
    <path
       style="fill:#ffffff;fill-rule:evenodd;stroke:#000000;stroke-width:1px;stroke-linecap:butt;stroke-linejoin:miter;stroke-opacity:1"
       d="M 346.41062,427.30273 C 326.76593,541.32834 243.9644,489.3117 235.68126,443.37736 C 223.83755,377.69777 283.26673,333.54604 308.05305,346.59717 C 356.75588,372.2414 345.20596,399.38928 346.41062,427.30273 z"
       id="path2514"
       sodipodi:nodetypes="cssc" />
    <path
       style="opacity:1;fill:#000000;fill-opacity:1;stroke:none;stroke-opacity:1"
       id="path2520"
       d="M 228.79269,337.12581 C 228.28954,334.71995 227.60977,332.36334 227.21539,329.93636 C 227.12427,325.88291 228.43213,321.89998 230.18758,318.28805 C 232.04007,315.14409 234.91366,312.65733 237.74227,310.3918 C 240.73683,307.95432 243.87852,305.7241 247.28358,303.90184 C 250.34629,302.14167 253.62271,300.83013 256.83158,299.37943 C 259.14322,298.17647 261.53275,297.17954 263.99944,296.34923 C 267.36118,295.5591 270.62759,294.39826 274.01507,293.72866 C 276.78483,293.06963 279.61661,293.00025 282.43763,292.77884 C 284.76333,292.51302 286.75639,292.76269 288.59713,294.24947 C 290.06822,295.57991 291.57219,296.87657 293.19192,298.0242 L 301.99826,309.69396 C 301.3604,309.26606 300.64299,308.95561 300.03902,308.48107 C 299.78917,308.28476 299.64442,307.97768 299.40319,307.77085 C 298.73779,307.20036 297.82684,306.9391 297.38021,306.10878 C 295.24487,304.27984 295.19957,303.63291 292.02868,303.83108 C 289.20853,304.05476 286.37223,303.91649 283.59083,304.51543 C 280.2826,305.1425 277.02959,306.0659 273.84595,307.15959 C 271.40388,307.95106 269.01329,308.88524 266.69232,309.98532 C 263.49187,311.40889 260.13952,312.51188 257.13861,314.36309 C 253.81146,316.10624 250.64832,318.19131 247.76929,320.60696 C 245.17695,322.8367 242.48419,325.15709 240.66762,328.07654 C 239.0697,331.50911 237.78968,335.23905 238.34195,339.07292 C 238.9242,341.60222 239.65434,344.09313 240.44814,346.5642 L 228.79269,337.12581 z" />
    <path
       style="opacity:1;fill:#000000;fill-opacity:1;stroke:none;stroke-opacity:1"
       id="path2522"
       d="M 427.3154,303.77979 C 424.88742,304.10256 422.45149,303.87182 420.05941,303.41895 C 415.9471,302.55715 411.91332,301.37152 407.77533,300.63786 C 404.42676,300.06046 401.08261,299.52614 397.6777,299.58642 C 395.44031,299.6906 393.25175,300.20423 391.08657,300.74389 C 388.93632,301.3115 386.79733,301.92068 384.65395,302.51353 C 382.62118,302.91179 380.93009,304.05762 379.19958,305.1182 C 377.47442,306.36241 375.80703,307.67832 374.15183,309.01454 C 372.31907,310.48364 370.65471,312.13049 369.02812,313.82053 C 367.20789,315.56167 365.63904,317.48239 364.91033,319.91789 C 364.38639,321.12417 364.31658,322.38576 363.78352,323.57627 L 352.92323,313.57137 C 353.31082,312.38345 353.54502,311.14849 354.08731,310.01164 C 355.1104,307.51384 356.7421,305.4397 358.6723,303.56234 C 360.25648,301.72526 362.02163,300.07143 363.89338,298.52923 C 365.60502,297.16527 367.26814,295.74115 369.05551,294.47396 C 370.90075,293.36862 372.65942,292.03763 374.81128,291.59127 C 376.97257,291.0115 379.13366,290.431 381.29474,289.85046 C 383.55777,289.2428 385.83018,288.62009 388.18672,288.52034 C 391.74199,288.43697 395.23171,289.00527 398.71718,289.67047 C 402.81285,290.31108 406.80316,291.45909 410.87353,292.24228 C 413.0125,292.65676 415.10912,292.93784 417.27994,292.63429 L 427.3154,303.77979 z" />
    <path
       sodipodi:type="arc"
       style="opacity:1;fill:#000000;fill-opacity:1;stroke:none;stroke-opacity:1"
       id="path2524"
       sodipodi:cx="211.62695"
       sodipodi:cy="432.63361"
       sodipodi:rx="17.67767"
       sodipodi:ry="16.667519"
       d="M 229.30462,432.63361 A 17.67767,16.667519 0 1 1 193.94928,432.63361 A 17.67767,16.667519 0 1 1 229.30462,432.63361 z"
       transform="matrix(0.258819,0.9659258,-0.9659258,0.258819,748.91595,99.836527)" />
    <path
       sodipodi:type="arc"
       style="opacity:1;fill:#000000;fill-opacity:1;stroke:none;stroke-opacity:1"
       id="path2526"
       sodipodi:cx="202.0305"
       sodipodi:cy="530.61841"
       sodipodi:rx="19.192898"
       sodipodi:ry="18.687822"
       d="M 221.2234,530.61841 A 19.192898,18.687822 0 1 1 182.8376,530.61841 A 19.192898,18.687822 0 1 1 221.2234,530.61841 z"
       transform="matrix(0.258819,0.9659258,-0.9659258,0.258819,748.91595,99.836527)" />
    <path
       style="opacity:1;fill:#000000;fill-opacity:1;stroke:none;stroke-opacity:1"
       id="path2530"
       d="M 394.58883,636.12269 C 394.98676,639.73176 395.8687,663.00735 395.82004,666.63894 C 395.73747,672.66778 396.28112,678.64139 397.26223,684.5818 C 397.92958,688.70805 399.392,692.65547 399.66431,696.83657 C 399.6693,698.941 400.0797,701.08891 399.8675,703.19465 C 399.81738,703.69211 399.38139,705.33178 399.24592,705.86243 C 398.7592,708.09749 398.54956,710.38853 398.66941,712.67404 C 399.0016,714.84447 398.63571,717.02101 398.59829,719.19637 C 398.3859,720.53156 398.48167,719.8814 398.30855,721.14648 L 387.22235,711.40144 C 387.40176,710.2069 387.32431,710.80362 387.45517,709.61134 C 387.56807,707.46223 387.70098,705.31724 387.49388,703.16677 C 387.52209,700.79045 387.75136,698.38967 388.36047,696.08834 C 389.06513,693.27973 388.8219,690.43804 388.62064,687.57058 C 388.17086,683.56025 386.98582,679.6794 386.50143,675.6695 C 385.66216,669.68001 385.3016,663.6501 385.22885,657.60302 C 385.13894,653.82252 385.18868,649.89972 383.99795,646.269 L 394.58883,636.12269 z"
       sodipodi:nodetypes="csccsccccccccccccc" />
    <path
       style="opacity:1;fill:#000000;fill-opacity:1;stroke:none;stroke-opacity:1"
       id="path2536"
       d="M 400.74734,715.99882 C 399.18591,716.33927 402.19676,713.50544 401.59923,714.92356 C 401.16882,716.66444 401.61885,718.43515 402.01325,720.13916 C 401.65367,720.32473 403.99246,722.74763 403.60892,722.36074 C 387.46673,706.07742 391.06464,711.06074 395.73332,713.64236 C 401.85719,717.13906 406.42762,723.03876 411.28341,727.88299 C 412.07909,728.68317 412.84776,729.51458 413.59937,730.35628 C 413.85069,730.63771 414.58772,731.49505 414.31984,731.22933 C 411.12827,728.06342 401.54905,718.5732 404.82461,721.65213 C 408.59376,725.19501 412.14245,728.96533 415.80139,732.62193 C 390.91654,707.69746 416.35854,733.186 417.20886,734.01091 C 420.47353,737.17799 410.77216,727.58251 407.57887,724.34348 C 407.37106,724.13269 408.02731,724.72995 408.25058,724.92428 C 409.10798,725.67049 408.60165,725.27373 409.56838,725.96255 C 411.32983,727.3405 413.34694,728.21623 415.35714,729.15658 C 418.50019,730.66493 421.51064,732.40832 424.67276,733.88102 C 427.3059,734.92755 429.54273,736.65027 431.84047,738.26223 C 433.9764,739.58123 435.83091,741.27079 437.81074,742.79922 C 439.20962,743.75734 440.65245,744.60843 441.98775,745.66293 L 450.70683,757.52944 C 449.51352,756.30893 448.16833,755.23443 446.56233,754.60702 C 444.65722,752.92606 442.64729,751.32713 440.58311,749.85179 C 438.27939,748.2767 436.10453,746.50049 433.58828,745.26844 C 430.3962,743.8551 427.39645,742.13747 424.29413,740.55568 C 422.31074,739.72061 420.17497,739.13791 418.52487,737.71419 C 413.38314,734.93907 408.56428,728.31989 405.3021,725.33649 C 404.78776,724.8661 433.93922,753.79827 403.88183,723.95551 C 425.38038,745.41695 405.99642,726.23419 399.41735,719.24138 C 417.68343,737.38897 409.46867,728.28332 404.69927,725.31012 C 404.40618,725.13906 404.12404,724.94766 403.81998,724.79694 C 403.50809,724.64233 403.10939,724.63446 402.85557,724.39619 C 399.12174,720.89112 392.19815,716.73578 390.62001,710.80403 C 390.2514,708.80192 389.98745,706.76621 390.81954,704.83361 C 391.75169,703.11861 393.02153,701.74 394.75248,700.81271 L 400.74734,715.99882 z"
       sodipodi:nodetypes="cccsccssscsssccccccccccccscccsscccc" />
    <path
       style="fill:#41ba00;fill-rule:evenodd;stroke:#000000;stroke-width:1px;stroke-linecap:butt;stroke-linejoin:miter;stroke-opacity:1;fill-opacity:1"
       d="M 396.31829,522.83691 C 352.30777,557.63681 280.76639,545.28761 258.63729,540.75921 C 224.85865,533.84691 253.22581,636.907 278.61362,645.79117 C 328.56798,663.27209 365.25638,652.91397 385.01923,627.97403 C 409.77413,596.73431 420.38011,511.16063 396.31829,522.83691 z"
       id="path2540"
       sodipodi:nodetypes="csssc" />
    <path
       style="fill:#6c6c6c;fill-rule:evenodd;stroke:#000000;stroke-width:1px;stroke-linecap:butt;stroke-linejoin:miter;stroke-opacity:1;fill-opacity:1"
       d="M 410.62468,550.32708 C 410.62468,550.32708 344.99532,578.78279 322.8305,580.685 C 303.90999,582.30878 248.15123,560.64221 242.81973,564.16236 C 235.5681,568.95026 238.05692,574.80989 246.16726,585.33381 C 254.18329,595.73538 312.25389,596.24787 325.00846,597.01344 C 338.11686,597.80024 399.83013,571.96811 405.99305,563.59065 C 413.65879,553.17032 417.66498,560.99008 410.62468,550.32708 z"
       id="path2542"
       sodipodi:nodetypes="csssssc" />
    <path
       style="fill:#4a4a4a;fill-rule:evenodd;stroke:#000000;stroke-width:1px;stroke-linecap:butt;stroke-linejoin:miter;stroke-opacity:1;fill-opacity:1"
       d="M 245.65881,570.38145 C 221.298,549.71845 210.10516,539.90496 203.28198,556.63741 C 189.39782,590.68548 242.83176,582.78368 245.08463,579.94738 C 252.41162,570.72293 253.46466,568.28988 245.65881,570.38145 z"
       id="path2544"
       sodipodi:nodetypes="cssc" />
  </g>
</svg>
